#N canvas 0 0 1440 878 12;
#X obj 36 654 vsl 15 128 0 100 0 0 empty empty empty 0 -9 0 10 -262144
-1 -1 0 1;
#X obj 911 110 tgl 15 0 empty empty empty 17 7 0 10 -262144 -1 -1 1
1;
#X floatatom 36 792 5 0 0 0 - - -;
#X obj 55 653 t b;
#X floatatom 1676 187 5 0 0 0 - - -;
#X obj 1728 137 f;
#X obj 33 478 route 0 1 2 3 4 5 6 7;
#X obj 33 445 sigmund~ -npts 8192 -hop 4096 -maxfreq 1200 -npeak 8
peaks;
#X obj 32 168 s pgt;
#X obj 33 524 pitch-gating;
#X obj 29 50 loadbang;
#X obj 29 72 delay 100;
#X text 27 22 initialization parameters;
#X obj 92 51 bng 15 250 50 0 empty empty empty 17 7 0 10 -262144 -1
-1;
#X obj 35 617 leaky-accum;
#X obj 55 700 - 100;
#X obj 1676 111 r p-dec;
#X obj 54 745 s p-dec;
#X text 110 47 bang to resend;
#X text 932 102 speed of accumulator leak;
#X text 1756 136 pitch resource pool;
#X obj 122 655 vsl 15 128 0 100 0 0 empty empty empty 0 -9 0 10 -262144
-1 -1 0 1;
#X floatatom 122 793 5 0 0 0 - - -;
#X obj 141 654 t b;
#X obj 120 587 f;
#X obj 121 618 leaky-accum;
#X obj 141 701 - 100;
#X obj 140 746 s p-dec;
#X obj 207 655 vsl 15 128 0 100 0 0 empty empty empty 0 -9 0 10 -262144
-1 -1 0 1;
#X floatatom 207 793 5 0 0 0 - - -;
#X obj 226 654 t b;
#X obj 205 587 f;
#X obj 206 618 leaky-accum;
#X obj 226 701 - 100;
#X obj 225 746 s p-dec;
#X obj 291 655 vsl 15 128 0 200 0 0 empty empty empty 0 -9 0 10 -262144
-1 -1 0 1;
#X floatatom 291 793 5 0 0 0 - - -;
#X obj 310 654 t b;
#X obj 289 587 f;
#X obj 290 618 leaky-accum;
#X obj 310 701 - 100;
#X obj 309 746 s p-dec;
#X obj 375 655 vsl 15 128 0 100 0 0 empty empty empty 0 -9 0 10 -262144
-1 -1 0 1;
#X floatatom 375 793 5 0 0 0 - - -;
#X obj 394 654 t b;
#X obj 373 587 f;
#X obj 374 618 leaky-accum;
#X obj 394 701 - 100;
#X obj 393 746 s p-dec;
#X obj 459 655 vsl 15 128 0 100 0 0 empty empty empty 0 -9 0 10 -262144
-1 -1 0 1;
#X floatatom 459 793 5 0 0 0 - - -;
#X obj 478 654 t b;
#X obj 478 677 f;
#X obj 457 587 f;
#X obj 458 618 leaky-accum;
#X obj 478 701 - 100;
#X obj 477 746 s p-dec;
#X obj 543 655 vsl 15 128 0 100 0 0 empty empty empty 0 -9 0 10 -262144
-1 -1 0 1;
#X floatatom 543 793 5 0 0 0 - - -;
#X obj 562 654 t b;
#X obj 562 677 f;
#X obj 541 587 f;
#X obj 542 618 leaky-accum;
#X obj 562 701 - 100;
#X obj 561 746 s p-dec;
#X obj 626 655 vsl 15 128 0 100 0 0 empty empty empty 0 -9 0 10 -262144
-1 -1 0 1;
#X floatatom 626 793 5 0 0 0 - - -;
#X obj 645 654 t b;
#X obj 645 677 f;
#X obj 624 587 f;
#X obj 625 618 leaky-accum;
#X obj 645 701 - 100;
#X obj 644 746 s p-dec;
#X obj 710 656 vsl 15 128 0 100 0 0 empty empty empty 0 -9 0 10 -262144
-1 -1 0 1;
#X floatatom 710 794 5 0 0 0 - - -;
#X obj 729 655 t b;
#X obj 729 678 f;
#X obj 708 588 f;
#X obj 709 619 leaky-accum;
#X obj 729 702 - 100;
#X obj 728 747 s p-dec;
#X obj 794 655 vsl 15 128 0 100 0 0 empty empty empty 0 -9 0 10 -262144
-1 -1 0 1;
#X floatatom 794 793 5 0 0 0 - - -;
#X obj 813 654 t b;
#X obj 813 677 f;
#X obj 792 587 f;
#X obj 793 618 leaky-accum;
#X obj 813 701 - 100;
#X obj 812 746 s p-dec;
#X obj 879 656 vsl 15 128 0 100 0 0 empty empty empty 0 -9 0 10 -262144
-1 -1 0 1;
#X floatatom 879 794 5 0 0 0 - - -;
#X obj 898 655 t b;
#X obj 898 678 f;
#X obj 877 588 f;
#X obj 878 619 leaky-accum;
#X obj 898 702 - 100;
#X obj 897 747 s p-dec;
#X obj 33 554 route 0 1 2 3 4 5 6 7 8 9 10 11;
#X obj 963 655 vsl 15 128 0 100 0 0 empty empty empty 0 -9 0 10 -262144
-1 -1 0 1;
#X floatatom 963 793 5 0 0 0 - - -;
#X obj 982 654 t b;
#X obj 982 677 f;
#X obj 961 587 f;
#X obj 962 618 leaky-accum;
#X obj 982 701 - 100;
#X obj 981 746 s p-dec;
#X obj 123 523 pitch-gating;
#X obj 215 523 pitch-gating;
#X obj 305 523 pitch-gating;
#X obj 397 523 pitch-gating;
#X obj 487 522 pitch-gating;
#X obj 579 522 pitch-gating;
#X obj 669 522 pitch-gating;
#X text 37 815 C;
#X text 122 815 C#;
#X text 206 816 D;
#X text 289 815 D#;
#X text 373 815 E;
#X text 457 814 F;
#X text 539 814 F#;
#X text 627 811 G;
#X text 707 814 G#;
#X text 792 813 A;
#X text 876 814 A#;
#X text 960 812 B;
#X obj 1188 343 abs~;
#X obj 1200 391 loadbang;
#X msg 1200 416 1;
#X obj 1188 466 snapshot~;
#X obj 34 328 adc~ 1 2;
#X obj 912 130 metro 92.88;
#X msg 32 135 55;
#X msg 148 135 93;
#X obj 1188 320 filters;
#X obj 1200 443 metro 23.25;
#X obj 1189 491 vsl 15 128 0 0.5 0 0 empty empty empty 0 -9 0 10 -262144
-1 -1 48 1;
#X floatatom 1211 605 5 0 0 0 - - -;
#X obj 1189 661 -;
#X obj 1221 663 f;
#X obj 1189 637 t f b;
#X obj 1189 735 change;
#X obj 1190 760 sel 1;
#X obj 1249 740 change;
#X obj 1249 762 sel 1;
#X obj 1189 686 moses 0;
#X obj 1188 366 cyclone/rampsmooth~ 512 1024;
#X floatatom 2085 191 5 0 0 0 - - -;
#X obj 2135 137 f;
#X text 2164 136 amplitude resource pool;
#X text 1222 793 value to decrement for each attack/release;
#X msg 574 73 \; pd dsp 1;
#X obj 394 677 f;
#X obj 310 677 f;
#X obj 226 677 f;
#X obj 141 677 f;
#X obj 55 676 f;
#X obj 34 586 f;
#X msg 74 135 -0.5;
#X obj 572 49 s loadbang;
#X text 97 326 input;
#X text 460 443 pitch counting section;
#X text 875 224 to calibrate: how fast should "safe" pitch build up?
how strong should pitch demerits be?, f 41;
#X obj 149 168 s pa-del;
#X obj 211 168 s pa-scaler;
#X obj 912 153 s pa-bang;
#X obj 76 168 s pa-leak;
#X obj 297 167 s pa-init;
#X msg 296 134 100;
#X obj 866 62 r gate-open;
#X obj 866 85 moses 1;
#X text 745 39 will turn metro on when first note is played;
#X obj 1674 394 &&;
#X floatatom 1673 484 5 0 0 0 - - -;
#X text 1719 486 will go to 0 when any pool runs out;
#X obj 1688 365 t b f;
#X obj 1673 449 &&;
#X obj 1685 419 t b f;
#X obj 2544 112 metro 1000;
#X obj 2544 91 tgl 15 0 empty empty empty 17 7 0 10 -262144 -1 -1 0
1;
#X obj 2642 169 f;
#X obj 2621 111 sel 0;
#X floatatom 2544 278 5 0 0 0 - - -;
#X obj 2621 140 f;
#X obj 2544 146 f;
#X text 2661 140 time pool;
#X obj 1190 831 s a-dec;
#X obj 2085 112 r a-dec;
#X obj 442 167 s amp-rel;
#X obj 370 165 s amp-att;
#X msg 370 131 0.08;
#X msg 441 134 -0.03;
#X obj 1258 685 r amp-rel;
#X obj 1188 710 < -1;
#X obj 1247 711 > 1;
#X obj 1329 684 r amp-att;
#X text 1232 342 amplitude detection section;
#X obj 2544 402 s v3;
#X obj 2544 328 * 254;
#X obj 2544 351 clip 0 254;
#X obj 708 454 dac~ 1 2;
#X obj 2544 377 i;
#X text 2134 586 voltmeter outputs;
#X obj 2137 609 r v1;
#X obj 2178 608 r v2;
#X obj 2220 607 r v3;
#X msg 1682 592 close;
#X obj 1627 651 sel 255;
#X obj 1700 681 list prepend;
#X obj 1626 704 list append;
#X obj 1792 681 t l;
#X text 1630 756 knob1;
#X floatatom 1626 831 5 0 0 0 - - -;
#X floatatom 1686 830 5 0 0 0 - - -;
#X floatatom 1750 832 5 0 0 0 - - -;
#X text 1695 755 knob2;
#X text 1759 757 knob3;
#X floatatom 1811 778 5 0 0 0 - - -;
#X floatatom 2030 781 5 0 0 0 - - -;
#X text 1814 758 switch;
#X text 2062 763 button;
#X obj 1626 728 unpack f f f f f;
#X obj 2064 677 pack 255 0 0 0;
#X floatatom 2137 633 5 0 254 0 - - -;
#X floatatom 2178 633 5 0 254 0 - - -;
#X floatatom 2220 633 5 0 254 0 - - -;
#X obj 2064 634 metro 100;
#X obj 2028 719 t b;
#X msg 2029 749 0;
#X obj 1627 626 comport 1 9600;
#X msg 1627 592 open 1;
#X obj 1627 564 r loadbang;
#X obj 1676 136 + 1000;
#X obj 2085 137 + 1000;
#X obj 1676 164 clip 0 1000;
#X obj 2085 166 clip 0 1000;
#X obj 2544 304 / 1000;
#X obj 2545 253 clip 0 1000;
#X obj 1688 247 * 254;
#X obj 1688 270 clip 0 254;
#X obj 1688 296 i;
#X obj 1688 223 / 1000;
#X obj 1688 321 s v1;
#X obj 2089 245 * 254;
#X obj 2089 268 clip 0 254;
#X obj 2089 294 i;
#X obj 2089 221 / 1000;
#X obj 2089 319 s v2;
#X obj 2030 806 change;
#X obj 2030 832 sel 0 1;
#X obj 2054 855 s buttstartbang;
#X obj 2030 879 s buttresetbang;
#X obj 2088 830 s butt01;
#X obj 2544 65 r butt01;
#X obj 1640 85 r buttstartbang;
#X obj 2051 87 r buttstartbang;
#X obj 1626 972 s knob1;
#X obj 1687 972 s knob2;
#X obj 1750 973 s knob3;
#X obj 1626 897 + 254;
#X obj 1626 852 * 4;
#X obj 1626 875 i;
#X floatatom 1625 920 5 0 0 0 - - -;
#X obj 1625 944 spigot;
#X obj 1687 898 + 254;
#X obj 1687 853 * 4;
#X obj 1687 876 i;
#X floatatom 1686 921 5 0 0 0 - - -;
#X obj 1686 945 spigot;
#X obj 1750 900 + 254;
#X obj 1750 855 * 4;
#X obj 1750 878 i;
#X floatatom 1749 923 5 0 0 0 - - -;
#X obj 1749 947 spigot;
#X text 1811 906 scaling of pools happens here;
#X obj 1971 808 == 0;
#X obj 1971 831 change;
#X obj 1791 61 r knob1;
#X obj 2213 59 r knob2;
#X obj 2665 110 r knob3;
#X text 2537 41 will turn metro on/off when button is pressed;
#X obj 1756 417 r buttresetbang;
#X obj 1756 442 t 0;
#X obj 1673 509 s output-gate;
#X obj 759 305 r output-gate;
#X obj 741 426 *~;
#X obj 758 337 lop~ 100;
#X obj 758 361 lop~ 100;
#X obj 758 384 lop~ 100;
#X obj 709 426 *~;
#X obj 2643 193 - 1;
#X obj 2543 221 + 0;
#X msg 2543 194 0;
#X obj 2544 172 t b f;
#X obj 2369 195 risk-scaler 10 0.1;
#X obj 1918 86 risk-scaler 10 0.1;
#X obj 1507 84 risk-scaler 10 0.1;
#X obj 1507 61 r risk-metro;
#X obj 1918 62 r risk-metro;
#X obj 2369 170 r risk-metro;
#X obj 1810 802 s risk-metro-gate;
#X obj 2409 96 r risk-metro-gate;
#X obj 2370 120 spigot;
#X obj 2370 145 s risk-metro;
#X obj 33 420 rough-noise-gate 1 55;
#X obj 517 166 s pd-scaler;
#X msg 516 133 0.0003;
#X obj 55 722 * 0.0003;
#X obj 141 723 * 0.0003;
#X obj 226 723 * 0.0003;
#X obj 310 723 * 0.0003;
#X obj 394 723 * 0.0003;
#X obj 478 723 * 0.0003;
#X obj 562 723 * 0.0003;
#X obj 645 723 * 0.0003;
#X obj 729 724 * 0.0003;
#X obj 813 723 * 0.0003;
#X obj 898 724 * 0.0003;
#X obj 982 723 * 0.0003;
#X obj 1042 701 r pd-scaler;
#X obj 436 50 delay 100;
#X obj 437 88 delay 100;
#X text 29 194 pgt = pitch gate threshold in dB (helps reduce overtones)
pa-leak = leak speed in pitch accumulator pa-del = delay time for pitch
accumulator "leak" gate (a-del should be just above the a-bang speed)
pa-scaler = can be increased to make pitches "safe" faster pa-init
= initializes pitch accumulators amp-att = threshold to register strong
attacks amp-rel = threshold to register strong releases (should be
neg) pd-scaler = scales the pitch demerit strength \, lower make it
less strong, f 100;
#X msg 210 135 2;
#X msg 1191 792 -0.8;
#X obj 1626 784 - 254;
#X obj 1626 805 abs;
#X obj 1686 785 - 254;
#X obj 1686 806 abs;
#X obj 1749 786 - 254;
#X obj 1749 807 abs;
#X connect 0 0 2 0;
#X connect 1 0 130 0;
#X connect 2 0 155 1;
#X connect 3 0 155 0;
#X connect 4 0 171 0;
#X connect 4 0 240 0;
#X connect 5 0 231 1;
#X connect 6 0 9 0;
#X connect 6 1 106 0;
#X connect 6 2 107 0;
#X connect 6 3 108 0;
#X connect 6 4 109 0;
#X connect 6 5 110 0;
#X connect 6 6 111 0;
#X connect 6 7 112 0;
#X connect 7 0 6 0;
#X connect 9 0 97 0;
#X connect 10 0 11 0;
#X connect 11 0 131 0;
#X connect 11 0 157 0;
#X connect 11 0 132 0;
#X connect 11 0 322 0;
#X connect 11 0 167 0;
#X connect 11 0 189 0;
#X connect 11 0 190 0;
#X connect 11 0 319 0;
#X connect 11 0 305 0;
#X connect 13 0 11 0;
#X connect 14 0 0 0;
#X connect 15 0 306 0;
#X connect 16 0 231 0;
#X connect 21 0 22 0;
#X connect 22 0 154 1;
#X connect 23 0 154 0;
#X connect 24 0 23 0;
#X connect 24 0 25 0;
#X connect 25 0 21 0;
#X connect 26 0 307 0;
#X connect 28 0 29 0;
#X connect 29 0 153 1;
#X connect 30 0 153 0;
#X connect 31 0 30 0;
#X connect 31 0 32 0;
#X connect 32 0 28 0;
#X connect 33 0 308 0;
#X connect 35 0 36 0;
#X connect 36 0 152 1;
#X connect 37 0 152 0;
#X connect 38 0 37 0;
#X connect 38 0 39 0;
#X connect 39 0 35 0;
#X connect 40 0 309 0;
#X connect 42 0 43 0;
#X connect 43 0 151 1;
#X connect 44 0 151 0;
#X connect 45 0 44 0;
#X connect 45 0 46 0;
#X connect 46 0 42 0;
#X connect 47 0 310 0;
#X connect 49 0 50 0;
#X connect 50 0 52 1;
#X connect 51 0 52 0;
#X connect 52 0 55 0;
#X connect 53 0 51 0;
#X connect 53 0 54 0;
#X connect 54 0 49 0;
#X connect 55 0 311 0;
#X connect 57 0 58 0;
#X connect 58 0 60 1;
#X connect 59 0 60 0;
#X connect 60 0 63 0;
#X connect 61 0 59 0;
#X connect 61 0 62 0;
#X connect 62 0 57 0;
#X connect 63 0 312 0;
#X connect 65 0 66 0;
#X connect 66 0 68 1;
#X connect 67 0 68 0;
#X connect 68 0 71 0;
#X connect 69 0 67 0;
#X connect 69 0 70 0;
#X connect 70 0 65 0;
#X connect 71 0 313 0;
#X connect 73 0 74 0;
#X connect 74 0 76 1;
#X connect 75 0 76 0;
#X connect 76 0 79 0;
#X connect 77 0 75 0;
#X connect 77 0 78 0;
#X connect 78 0 73 0;
#X connect 79 0 314 0;
#X connect 81 0 82 0;
#X connect 82 0 84 1;
#X connect 83 0 84 0;
#X connect 84 0 87 0;
#X connect 85 0 83 0;
#X connect 85 0 86 0;
#X connect 86 0 81 0;
#X connect 87 0 315 0;
#X connect 89 0 90 0;
#X connect 90 0 92 1;
#X connect 91 0 92 0;
#X connect 92 0 95 0;
#X connect 93 0 91 0;
#X connect 93 0 94 0;
#X connect 94 0 89 0;
#X connect 95 0 316 0;
#X connect 97 0 156 0;
#X connect 97 1 24 0;
#X connect 97 2 31 0;
#X connect 97 3 38 0;
#X connect 97 4 45 0;
#X connect 97 5 53 0;
#X connect 97 6 61 0;
#X connect 97 7 69 0;
#X connect 97 8 77 0;
#X connect 97 9 85 0;
#X connect 97 10 93 0;
#X connect 97 11 102 0;
#X connect 98 0 99 0;
#X connect 99 0 101 1;
#X connect 100 0 101 0;
#X connect 101 0 104 0;
#X connect 102 0 100 0;
#X connect 102 0 103 0;
#X connect 103 0 98 0;
#X connect 104 0 317 0;
#X connect 106 0 97 0;
#X connect 107 0 97 0;
#X connect 108 0 97 0;
#X connect 109 0 97 0;
#X connect 110 0 97 0;
#X connect 111 0 97 0;
#X connect 112 0 97 0;
#X connect 125 0 145 0;
#X connect 126 0 127 0;
#X connect 127 0 134 0;
#X connect 128 0 135 0;
#X connect 129 0 133 0;
#X connect 129 0 288 0;
#X connect 129 0 303 0;
#X connect 129 1 133 0;
#X connect 129 1 284 0;
#X connect 129 1 303 0;
#X connect 130 0 164 0;
#X connect 131 0 8 0;
#X connect 132 0 162 0;
#X connect 133 0 125 0;
#X connect 134 0 128 0;
#X connect 135 0 139 0;
#X connect 135 0 138 1;
#X connect 135 0 136 0;
#X connect 137 0 144 0;
#X connect 138 0 137 1;
#X connect 139 0 137 0;
#X connect 139 1 138 0;
#X connect 140 0 141 0;
#X connect 141 0 323 0;
#X connect 142 0 143 0;
#X connect 143 0 323 0;
#X connect 144 0 192 0;
#X connect 144 1 193 0;
#X connect 145 0 128 0;
#X connect 146 0 174 0;
#X connect 146 0 245 0;
#X connect 147 0 232 1;
#X connect 151 0 47 0;
#X connect 152 0 40 0;
#X connect 153 0 33 0;
#X connect 154 0 26 0;
#X connect 155 0 15 0;
#X connect 156 0 3 0;
#X connect 156 0 14 0;
#X connect 157 0 165 0;
#X connect 167 0 166 0;
#X connect 168 0 169 0;
#X connect 169 1 1 0;
#X connect 171 0 175 0;
#X connect 172 0 282 0;
#X connect 174 0 171 0;
#X connect 174 1 171 1;
#X connect 175 0 172 0;
#X connect 176 0 175 0;
#X connect 176 1 175 1;
#X connect 177 0 183 0;
#X connect 177 0 301 0;
#X connect 178 0 177 0;
#X connect 178 0 180 0;
#X connect 179 0 289 0;
#X connect 180 0 182 0;
#X connect 181 0 176 0;
#X connect 181 0 235 0;
#X connect 182 0 183 1;
#X connect 183 0 292 0;
#X connect 186 0 232 0;
#X connect 189 0 188 0;
#X connect 190 0 187 0;
#X connect 191 0 192 1;
#X connect 192 0 140 0;
#X connect 193 0 142 0;
#X connect 194 0 193 1;
#X connect 197 0 198 0;
#X connect 198 0 200 0;
#X connect 200 0 196 0;
#X connect 202 0 222 0;
#X connect 203 0 223 0;
#X connect 204 0 224 0;
#X connect 205 0 226 0;
#X connect 205 0 228 0;
#X connect 206 0 208 0;
#X connect 206 0 207 1;
#X connect 206 1 207 0;
#X connect 207 0 208 1;
#X connect 207 0 209 0;
#X connect 208 0 220 0;
#X connect 209 0 207 1;
#X connect 211 0 259 0;
#X connect 212 0 264 0;
#X connect 213 0 269 0;
#X connect 216 0 299 0;
#X connect 217 0 247 0;
#X connect 217 0 274 0;
#X connect 220 0 324 0;
#X connect 220 1 326 0;
#X connect 220 2 328 0;
#X connect 220 3 216 0;
#X connect 220 4 217 0;
#X connect 221 0 228 0;
#X connect 222 0 221 1;
#X connect 223 0 221 2;
#X connect 224 0 221 3;
#X connect 225 0 221 0;
#X connect 226 0 227 0;
#X connect 227 0 217 0;
#X connect 228 0 206 0;
#X connect 229 0 228 0;
#X connect 230 0 229 0;
#X connect 231 0 233 0;
#X connect 232 0 234 0;
#X connect 233 0 4 0;
#X connect 233 0 5 0;
#X connect 234 0 147 0;
#X connect 234 0 146 0;
#X connect 235 0 197 0;
#X connect 236 0 179 0;
#X connect 236 0 181 0;
#X connect 237 0 238 0;
#X connect 238 0 239 0;
#X connect 239 0 241 0;
#X connect 240 0 237 0;
#X connect 242 0 243 0;
#X connect 243 0 244 0;
#X connect 244 0 246 0;
#X connect 245 0 242 0;
#X connect 247 0 225 0;
#X connect 247 0 248 0;
#X connect 247 0 251 0;
#X connect 248 0 250 0;
#X connect 248 1 249 0;
#X connect 252 0 178 0;
#X connect 253 0 231 0;
#X connect 254 0 232 0;
#X connect 258 0 261 0;
#X connect 259 0 260 0;
#X connect 260 0 258 0;
#X connect 261 0 262 0;
#X connect 262 0 255 0;
#X connect 263 0 266 0;
#X connect 264 0 265 0;
#X connect 265 0 263 0;
#X connect 266 0 267 0;
#X connect 267 0 256 0;
#X connect 268 0 271 0;
#X connect 269 0 270 0;
#X connect 270 0 268 0;
#X connect 271 0 272 0;
#X connect 272 0 257 0;
#X connect 274 0 275 0;
#X connect 275 0 272 1;
#X connect 275 0 267 1;
#X connect 275 0 262 1;
#X connect 276 0 231 1;
#X connect 276 0 233 2;
#X connect 276 0 240 1;
#X connect 276 0 295 1;
#X connect 277 0 232 1;
#X connect 277 0 234 2;
#X connect 277 0 245 1;
#X connect 277 0 294 1;
#X connect 278 0 182 1;
#X connect 278 0 183 1;
#X connect 278 0 235 1;
#X connect 278 0 236 2;
#X connect 278 0 293 1;
#X connect 280 0 281 0;
#X connect 281 0 172 0;
#X connect 283 0 285 0;
#X connect 284 0 199 1;
#X connect 285 0 286 0;
#X connect 286 0 287 0;
#X connect 287 0 284 1;
#X connect 287 0 288 1;
#X connect 288 0 199 0;
#X connect 289 0 183 1;
#X connect 290 0 236 0;
#X connect 291 0 290 0;
#X connect 292 0 291 0;
#X connect 292 1 290 1;
#X connect 293 0 290 0;
#X connect 294 0 232 0;
#X connect 295 0 231 0;
#X connect 296 0 295 0;
#X connect 297 0 294 0;
#X connect 298 0 293 0;
#X connect 300 0 301 1;
#X connect 301 0 302 0;
#X connect 303 0 7 0;
#X connect 305 0 304 0;
#X connect 306 0 17 0;
#X connect 307 0 27 0;
#X connect 308 0 34 0;
#X connect 309 0 41 0;
#X connect 310 0 48 0;
#X connect 311 0 56 0;
#X connect 312 0 64 0;
#X connect 313 0 72 0;
#X connect 314 0 80 0;
#X connect 315 0 88 0;
#X connect 316 0 96 0;
#X connect 317 0 105 0;
#X connect 318 0 317 1;
#X connect 318 0 316 1;
#X connect 318 0 315 1;
#X connect 318 0 314 1;
#X connect 318 0 313 1;
#X connect 318 0 312 1;
#X connect 318 0 311 1;
#X connect 318 0 310 1;
#X connect 318 0 309 1;
#X connect 318 0 308 1;
#X connect 318 0 307 1;
#X connect 318 0 306 1;
#X connect 319 0 158 0;
#X connect 319 0 320 0;
#X connect 320 0 150 0;
#X connect 322 0 163 0;
#X connect 323 0 185 0;
#X connect 324 0 325 0;
#X connect 325 0 211 0;
#X connect 326 0 327 0;
#X connect 327 0 212 0;
#X connect 328 0 329 0;
#X connect 329 0 213 0;
