#N canvas 524 207 210 331 12;
#X obj 37 62 hip~ 40;
#X obj 36 86 hip~ 40;
#X obj 37 110 hip~ 40;
#X obj 37 133 lop~ 2000;
#X obj 37 161 lop~ 2000;
#X obj 36 188 lop~ 2000;
#X obj 37 214 outlet~;
#X obj 37 36 inlet~;
#X connect 0 0 1 0;
#X connect 1 0 2 0;
#X connect 2 0 3 0;
#X connect 3 0 4 0;
#X connect 4 0 5 0;
#X connect 5 0 6 0;
#X connect 7 0 0 0;
