#N canvas 508 350 496 457 12;
#X obj 114 299 f;
#X obj 25 377 outlet;
#X obj 24 9 inlet;
#X obj 78 228 spigot;
#X msg 116 203 1;
#X msg 56 173 0;
#X obj 24 105 t f b;
#X obj 116 178 delay \$2;
#X obj 79 129 f \$1;
#X text 117 129 decrement value;
#X text 183 178 delay time;
#X obj 25 299 clip 0 100;
#X text 146 300 maxes at 100;
#X obj 25 277 +;
#X obj 24 53 * 1;
#X obj 73 8 r pa-scaler;
#X obj 79 69 r pa-bang;
#X obj 170 154 r pa-del;
#X obj 103 100 r pa-leak;
#X obj 78 39 r pa-init;
#X connect 0 0 13 1;
#X connect 2 0 14 0;
#X connect 3 0 13 0;
#X connect 4 0 3 1;
#X connect 5 0 3 1;
#X connect 6 0 13 0;
#X connect 6 1 5 0;
#X connect 6 1 7 0;
#X connect 7 0 4 0;
#X connect 8 0 3 0;
#X connect 11 0 0 0;
#X connect 11 0 1 0;
#X connect 13 0 11 0;
#X connect 14 0 6 0;
#X connect 15 0 14 1;
#X connect 16 0 8 0;
#X connect 17 0 7 1;
#X connect 18 0 8 1;
#X connect 19 0 6 0;
