#N canvas 169 79 433 333 12;
#X obj 78 107 ftom;
#X obj 78 131 int;
#X obj 78 154 % 12;
#X text 26 152 pitch#;
#X obj 78 288 outlet;
#X obj 78 25 inlet;
#X obj 78 52 unpack 0 0;
#X obj 78 252 pack 0 0;
#X obj 77 199 spigot;
#X obj 145 158 > \$1;
#X obj 170 132 r pgt;
#X obj 145 107 rmstodb;
#X text 212 131 pgt = amp threshold in dB;
#X connect 0 0 1 0;
#X connect 1 0 2 0;
#X connect 2 0 8 0;
#X connect 5 0 6 0;
#X connect 6 0 0 0;
#X connect 6 1 7 1;
#X connect 6 1 11 0;
#X connect 7 0 4 0;
#X connect 8 0 7 0;
#X connect 9 0 8 1;
#X connect 10 0 9 1;
#X connect 11 0 9 0;
