#N canvas 524 207 570 517 12;
#X obj 89 439 *~;
#X obj 90 145 hip~ 40;
#X obj 89 169 hip~ 40;
#X obj 90 193 hip~ 40;
#X obj 90 216 lop~ 2000;
#X obj 90 244 lop~ 2000;
#X obj 89 271 lop~ 2000;
#X obj 106 350 lop~ 100;
#X obj 105 374 lop~ 100;
#X obj 106 397 lop~ 100;
#X obj 88 465 outlet~;
#X obj 90 61 inlet~;
#X obj 105 325 > \$2;
#X obj 90 85 *~ \$1;
#X text 167 59 arguments = amp multiplier \, dB threshold;
#X obj 106 300 env~ 4096 2048;
#X obj 90 114 cyclone/tanh~;
#X obj 225 343 change;
#X obj 225 366 s gate-open;
#X connect 0 0 10 0;
#X connect 1 0 2 0;
#X connect 2 0 3 0;
#X connect 3 0 4 0;
#X connect 4 0 5 0;
#X connect 5 0 6 0;
#X connect 6 0 0 0;
#X connect 6 0 15 0;
#X connect 7 0 8 0;
#X connect 8 0 9 0;
#X connect 9 0 0 1;
#X connect 11 0 13 0;
#X connect 12 0 7 0;
#X connect 12 0 17 0;
#X connect 13 0 16 0;
#X connect 15 0 12 0;
#X connect 16 0 1 0;
#X connect 17 0 18 0;
