#N canvas 185 246 1124 634 12;
#X msg 132 80 close;
#X obj 74 171 sel 255;
#X obj 147 201 list prepend;
#X obj 73 224 list append;
#X obj 239 201 t l;
#X text 33 358 knob1;
#X floatatom 74 358 5 0 0 0 - - -;
#X floatatom 160 358 5 0 0 0 - - -;
#X floatatom 250 357 5 0 0 0 - - -;
#X text 119 358 knob2;
#X text 208 358 knob3;
#X floatatom 348 357 5 0 0 0 - - -;
#X floatatom 442 358 5 0 0 0 - - -;
#X text 299 357 switch;
#X text 393 358 button;
#X obj 73 248 unpack f f f f f;
#X obj 576 195 pack 255 0 0 0;
#X floatatom 664 138 5 0 254 0 - - -;
#X floatatom 712 137 5 0 254 0 - - -;
#X floatatom 760 136 5 0 254 0 - - -;
#X text 188 394 test inputs;
#X text 665 99 test voltmeter outputs;
#X obj 576 140 metro 100;
#X obj 440 296 t b;
#X msg 441 326 0;
#X obj 74 146 comport 1 9600;
#X msg 75 81 open 1;
#X connect 0 0 23 0;
#X connect 0 0 25 0;
#X connect 1 0 3 0;
#X connect 1 0 2 1;
#X connect 1 1 2 0;
#X connect 2 0 3 1;
#X connect 2 0 4 0;
#X connect 3 0 15 0;
#X connect 4 0 2 1;
#X connect 12 0 22 0;
#X connect 15 0 6 0;
#X connect 15 1 7 0;
#X connect 15 2 8 0;
#X connect 15 3 11 0;
#X connect 15 4 12 0;
#X connect 16 0 25 0;
#X connect 17 0 16 1;
#X connect 18 0 16 2;
#X connect 19 0 16 3;
#X connect 22 0 16 0;
#X connect 23 0 24 0;
#X connect 24 0 12 0;
#X connect 25 0 1 0;
#X connect 26 0 25 0;
